<?xml version="1.0" encoding="utf-8"?>
<svg width="102.862656px" height="38.156982px" viewBox="0 0 102.862656 38.156982" version="1.1" xmlns:xlink="http://www.w3.org/1999/xlink" xmlns="http://www.w3.org/2000/svg">
  <defs>
    <linearGradient x1="-3.469447E-18" y1="1" x2="1" y2="4.1633363E-16" id="gradient_1">
      <stop offset="0%" stop-color="#002F5A" />
      <stop offset="40.53898%" stop-color="#004687" />
      <stop offset="66.34787%" stop-color="#833D59" />
      <stop offset="82.17224%" stop-color="#D84E38" />
      <stop offset="100%" stop-color="#F07D00" />
    </linearGradient>
    <path d="M0 0L82.2073 0L82.2073 19.622L0 19.622L0 0Z" id="path_1" />
    <clipPath id="mask_1">
      <use xlink:href="#path_1" />
    </clipPath>
  </defs>
  <g id="Group-22">
    <g id="Group-6">
      <g id="Group-3" transform="translate(19.477575 0)">
        <path d="M0 0L82.2073 0L82.2073 19.622L0 19.622L0 0Z" id="Clip-2" fill="none" fill-rule="evenodd" stroke="none" />
        <g clip-path="url(#mask_1)">
          <path d="M47.0542 19.622C47.0542 19.622 46.539 11.3608 36.1208 11.3608C23.4135 11.3608 0 19.622 0 19.622C0 19.622 34.5135 -0.000225 61.3462 -0.000225C85.7925 -0.000225 81.9938 19.622 81.9938 19.622C81.9938 19.622 77.6535 11.3608 68.1383 11.3608C56.01 11.3608 47.0542 19.622 47.0542 19.622" id="Fill-1" fill="url(#gradient_1)" fill-rule="evenodd" stroke="none" />
        </g>
      </g>
      <path d="M0 37.7944L0 20.6442L6.07275 20.6442C10.7407 20.6442 14.4172 23.7409 14.4172 29.2549C14.4172 34.7472 10.6927 37.7944 6.04875 37.7944L0 37.7944ZM5.952 35.1327C8.9265 35.1327 11.394 33.2225 11.394 29.2549C11.394 25.2402 8.9505 23.3044 5.976 23.3044L2.90325 23.3044L2.90325 35.1327L5.952 35.1327Z" id="Fill-4" fill="#004687" fill-rule="evenodd" stroke="none" />
    </g>
    <path d="M18.0866 27.1005L18.0866 37.7948L20.8684 37.7948L20.8684 26.0138L18.0866 27.1005Z" id="Fill-7" fill="#004687" fill-rule="evenodd" stroke="none" />
    <g id="Group-14" transform="translate(24.445274 20.28075)">
      <path d="M12.216 11.612C12.216 15.2398 9.627 17.876 6.096 17.876C2.589 17.876 0 15.2398 0 11.612C0 8.00677 2.589 5.37052 6.096 5.37052C9.627 5.37052 12.216 8.00677 12.216 11.612M9.3855 11.612C9.3855 9.16852 7.8375 7.91002 6.096 7.91002C4.3785 7.91002 2.80725 9.16852 2.80725 11.612C2.80725 14.0555 4.3785 15.3613 6.096 15.3613C7.8375 15.3613 9.3855 14.0788 9.3855 11.612" id="Fill-8" fill="#004687" fill-rule="evenodd" stroke="none" />
      <path d="M19.2741 5.73263L21.7169 5.73263L21.7169 8.22487L19.2741 8.22487L19.2741 13.6916C19.2741 14.7319 19.7323 15.1669 20.7733 15.1669C21.1603 15.1669 21.6194 15.0941 21.7408 15.0701L21.7408 17.3936C21.5714 17.4649 21.0388 17.6591 20.0233 17.6591C17.8461 17.6591 16.4923 16.3526 16.4923 14.1514L16.4923 8.22487L14.3151 8.22487L14.3151 5.73263L14.9188 5.73263C16.1773 5.73263 16.7331 4.93538 16.7331 3.89512L16.7331 3.12787L19.2741 2.12888L19.2741 5.73263Z" id="Fill-10" fill="#004687" fill-rule="evenodd" stroke="none" />
      <path d="M34.3161 5.20125C34.1466 4.137 33.2519 2.565 30.9524 2.565C29.2116 2.565 28.0019 3.726 28.0019 5.03175C28.0019 6.12 28.6799 6.942 30.0104 7.233L32.4771 7.74075C35.5004 8.34525 37.1211 10.257 37.1211 12.6765C37.1211 15.336 34.9694 17.8762 31.0506 17.8762C26.6954 17.8762 24.6891 15.0705 24.4214 12.6037L27.1319 11.829C27.3013 13.6185 28.5824 15.2633 31.0506 15.2633C33.1063 15.2633 34.1706 14.2245 34.1706 12.8932C34.1706 11.781 33.3486 10.8862 31.8734 10.5712L29.4531 10.0642C26.8409 9.531 25.1001 7.8135 25.1001 5.2485C25.1001 2.37075 27.7364 0 30.9291 0C34.8373 0 36.4364 2.30925 36.8871 4.19025" id="Fill-12" fill="#004687" fill-rule="evenodd" stroke="none" />
    </g>
    <path d="M65.1409 27.1005L65.1409 37.7948L67.9226 37.7948L67.9226 26.0138L65.1409 27.1005Z" id="Fill-15" fill="#004687" fill-rule="evenodd" stroke="none" />
    <g id="Group-20" transform="translate(71.69265 25.65105)">
      <path d="M0.32925 3.34725C0.77175 1.52625 2.538 0 5.20125 0C8.829 0 10.2083 2.05575 10.2083 4.4025L10.2083 10.257C10.2083 11.3212 10.3298 12.0232 10.353 12.1432L7.74075 12.1432C7.7175 12.0705 7.62075 11.5868 7.62075 10.644C7.06425 11.5395 5.90325 12.5055 3.9915 12.5055C1.52475 12.5055 0 10.8135 0 8.9505C0 6.846 1.548 5.685 3.5565 5.394L6.5805 4.93575C7.257 4.8375 7.45125 4.49925 7.45125 4.08825C7.45125 3.09675 6.77325 2.298 5.22525 2.298C3.75 2.298 2.92725 3.24225 2.80725 4.4265M7.45125 7.257L7.45125 6.72525L4.37925 7.18425C3.50775 7.32975 2.80725 7.8135 2.80725 8.78175C2.80725 9.57975 3.411 10.3042 4.52475 10.3042C6.096 10.3042 7.45125 9.555 7.45125 7.257" id="Fill-16" fill="#004687" fill-rule="evenodd" stroke="none" />
      <path d="M16.3233 6.24172C16.3233 8.61247 17.8465 9.94223 19.6128 9.94223C21.4518 9.94223 22.2978 8.65972 22.5633 7.76498L25.0315 8.65972C24.475 10.4987 22.7088 12.5057 19.6128 12.5057C16.1538 12.5057 13.5168 9.82222 13.5168 6.24172C13.5168 2.61247 16.1538 0.000225 19.5401 0.000225C22.6735 0.000225 24.4113 1.93972 24.9175 3.80722L22.4178 4.78973C22.1523 3.74948 21.3535 2.58847 19.5633 2.58847C17.8465 2.58847 16.3233 3.86948 16.3233 6.24172" id="Fill-18" fill="#004687" fill-rule="evenodd" stroke="none" />
    </g>
    <path d="M100.081 27.1005L100.081 37.7948L102.863 37.7948L102.863 26.0138L100.081 27.1005Z" id="Fill-21" fill="#004687" fill-rule="evenodd" stroke="none" />
  </g>
</svg>